<?xml version="1.0" ?><!DOCTYPE svg  PUBLIC '-//W3C//DTD SVG 1.1//EN'  'http://www.w3.org/Graphics/SVG/1.1/DTD/svg11.dtd'><svg enable-background="new 0 0 512 512" id="Layer_1" version="1.1" viewBox="0 0 512 512" xml:space="preserve" xmlns="http://www.w3.org/2000/svg" xmlns:xlink="http://www.w3.org/1999/xlink"><path d="M494,256c0,131.4-106.6,238-238,238S18,387.4,18,256S124.6,18,256,18S494,124.6,494,256z" fill="#90A4AE"/><path d="M344.5,129.6H159.2c-11,0-20,9-20,20v216.1  c0,11,9,20,20,20h111.3l94-92.7V149.6C364.5,138.6,355.5,129.6,344.5,129.6z" fill="none" stroke="#FFFFFF" stroke-miterlimit="10" stroke-width="15"/><polygon fill="#FFFFFF" points="177.1,195.8 323.3,195.8 323.3,205.7 177.1,205.7 "/><rect fill="#FFFFFF" height="9.9" width="146.3" x="177.1" y="278.1"/><rect fill="#FFFFFF" height="9.9" width="146.3" x="178.2" y="235.5"/><g><g><path d="M318.5,422.3l75.7-75.7l-21.9-21.9l0,0    l-75.7,75.7l-5.3,5.4l-3,24.8l24.8-3L318.5,422.3" fill="none" stroke="#FFFFFF" stroke-miterlimit="10" stroke-width="10"/></g><g><path d="M399.4,300.6c-1.6,0-3.3,0.6-4.5,1.9l-11.8,11.8    l21.9,21.9l11.8-11.8c2.5-2.5,2.5-6.5,0-9l-12.9-12.9C402.6,301.3,401,300.6,399.4,300.6L399.4,300.6z" fill="none" stroke="#FFFFFF" stroke-miterlimit="10" stroke-width="10"/></g></g></svg>